<svg width="40" height="40" viewBox="0 0 40 40" fill="none" xmlns="http://www.w3.org/2000/svg">
<path d="M20.0001 13.3333C19.558 13.3333 19.1341 13.5089 18.8216 13.8215C18.509 14.134 18.3334 14.558 18.3334 15C18.3334 15.442 18.509 15.8659 18.8216 16.1785C19.1341 16.4911 19.558 16.6667 20.0001 16.6667C20.8841 16.6667 21.732 17.0179 22.3571 17.643C22.9822 18.2681 23.3334 19.1159 23.3334 20C23.3334 20.8841 22.9822 21.7319 22.3571 22.357C21.732 22.9821 20.8841 23.3333 20.0001 23.3333C19.558 23.3333 19.1341 23.5089 18.8216 23.8215C18.509 24.134 18.3334 24.558 18.3334 25C18.3334 25.442 18.509 25.8659 18.8216 26.1785C19.1341 26.4911 19.558 26.6667 20.0001 26.6667C21.7682 26.6667 23.4639 25.9643 24.7141 24.714C25.9643 23.4638 26.6667 21.7681 26.6667 20C26.6667 18.2319 25.9643 16.5362 24.7141 15.286C23.4639 14.0357 21.7682 13.3333 20.0001 13.3333ZM36.1834 18.8167L32.2667 15V9.4C32.2667 8.95797 32.0911 8.53405 31.7786 8.22149C31.466 7.90893 31.0421 7.73333 30.6001 7.73333H25.0834L21.1834 3.81667C21.0285 3.66045 20.8441 3.53646 20.641 3.45185C20.4379 3.36723 20.2201 3.32367 20.0001 3.32367C19.78 3.32367 19.5622 3.36723 19.3591 3.45185C19.156 3.53646 18.9717 3.66045 18.8167 3.81667L15.0001 7.73333H9.40006C8.95803 7.73333 8.53411 7.90893 8.22155 8.22149C7.90899 8.53405 7.73339 8.95797 7.73339 9.4V15L3.81673 18.8167C3.66051 18.9716 3.53652 19.1559 3.45191 19.359C3.36729 19.5621 3.32373 19.78 3.32373 20C3.32373 20.22 3.36729 20.4379 3.45191 20.641C3.53652 20.8441 3.66051 21.0284 3.81673 21.1833L7.73339 25.0833V30.6C7.73339 31.042 7.90899 31.4659 8.22155 31.7785C8.53411 32.0911 8.95803 32.2667 9.40006 32.2667H15.0001L18.9001 36.1833C19.055 36.3395 19.2393 36.4635 19.4424 36.5481C19.6455 36.6328 19.8634 36.6763 20.0834 36.6763C20.3034 36.6763 20.5213 36.6328 20.7244 36.5481C20.9275 36.4635 21.1118 36.3395 21.2667 36.1833L25.1667 32.2667H30.6834C31.1254 32.2667 31.5493 32.0911 31.8619 31.7785C32.1745 31.4659 32.3501 31.042 32.3501 30.6V25.0833L36.2667 21.1833C36.4176 21.023 36.5352 20.8343 36.6128 20.6282C36.6903 20.4221 36.7262 20.2027 36.7185 19.9826C36.7107 19.7626 36.6595 19.5462 36.5676 19.3461C36.4758 19.146 36.3452 18.966 36.1834 18.8167ZM29.4334 23.2167C29.2759 23.371 29.1506 23.5551 29.0648 23.7582C28.979 23.9613 28.9343 24.1795 28.9334 24.4V28.9333H24.4001C24.1796 28.9342 23.9614 28.9789 23.7583 29.0647C23.5552 29.1506 23.3711 29.2759 23.2167 29.4333L20.0001 32.65L16.7834 29.4333C16.629 29.2759 16.445 29.1506 16.2418 29.0647C16.0387 28.9789 15.8206 28.9342 15.6001 28.9333H11.0667V24.4C11.0658 24.1795 11.0211 23.9613 10.9353 23.7582C10.8495 23.5551 10.7242 23.371 10.5667 23.2167L7.35006 20L10.5667 16.7833C10.7242 16.629 10.8495 16.4449 10.9353 16.2418C11.0211 16.0386 11.0658 15.8205 11.0667 15.6V11.0667H15.6001C15.8206 11.0658 16.0387 11.0211 16.2418 10.9353C16.445 10.8494 16.629 10.7241 16.7834 10.5667L20.0001 7.35L23.2167 10.5667C23.3711 10.7241 23.5552 10.8494 23.7583 10.9353C23.9614 11.0211 24.1796 11.0658 24.4001 11.0667H28.9334V15.6C28.9343 15.8205 28.979 16.0386 29.0648 16.2418C29.1506 16.4449 29.2759 16.629 29.4334 16.7833L32.6501 20L29.4334 23.2167Z" fill="#A3ABB2"/>
</svg>
