<svg width="28" height="24" viewBox="0 0 28 24" fill="none" xmlns="http://www.w3.org/2000/svg">
<path d="M21.5189 20H5.781C5.48286 20 5.19693 20.1054 4.98611 20.2929C4.7753 20.4804 4.65686 20.7348 4.65686 21C4.65686 21.2652 4.7753 21.5196 4.98611 21.7071C5.19693 21.8946 5.48286 22 5.781 22H21.5189C21.8171 22 22.103 21.8946 22.3138 21.7071C22.5246 21.5196 22.6431 21.2652 22.6431 21C22.6431 20.7348 22.5246 20.4804 22.3138 20.2929C22.103 20.1054 21.8171 20 21.5189 20ZM12.8518 17.71C12.9587 17.801 13.0848 17.8724 13.2228 17.92C13.3574 17.9729 13.5028 18.0002 13.65 18.0002C13.7971 18.0002 13.9426 17.9729 14.0771 17.92C14.2151 17.8724 14.3412 17.801 14.4481 17.71L18.9447 13.71C19.1563 13.5217 19.2753 13.2663 19.2753 13C19.2753 12.7337 19.1563 12.4783 18.9447 12.29C18.733 12.1017 18.4459 11.9959 18.1465 11.9959C17.8472 11.9959 17.5601 12.1017 17.3484 12.29L14.7741 14.59V3C14.7741 2.73478 14.6557 2.48043 14.4448 2.29289C14.234 2.10536 13.9481 2 13.65 2C13.3518 2 13.0659 2.10536 12.8551 2.29289C12.6443 2.48043 12.5258 2.73478 12.5258 3V14.59L9.95155 12.29C9.84674 12.1968 9.72231 12.1228 9.58536 12.0723C9.44842 12.0219 9.30164 11.9959 9.15341 11.9959C9.00518 11.9959 8.85841 12.0219 8.72146 12.0723C8.58452 12.1228 8.46009 12.1968 8.35527 12.29C8.25046 12.3832 8.16732 12.4939 8.11059 12.6158C8.05387 12.7376 8.02467 12.8681 8.02467 13C8.02467 13.1319 8.05387 13.2624 8.11059 13.3842C8.16732 13.5061 8.25046 13.6168 8.35527 13.71L12.8518 17.71Z" fill="#3D3D3D"/>
</svg>
