<svg width="30" height="31" viewBox="0 0 30 31" fill="none" xmlns="http://www.w3.org/2000/svg">
<path d="M27.705 0.499996H2.29497C2.00933 0.496029 1.72572 0.548367 1.46031 0.654022C1.19491 0.759676 0.952921 0.916577 0.748162 1.11576C0.543403 1.31495 0.379888 1.55252 0.266954 1.81491C0.154019 2.0773 0.0938784 2.35936 0.0899658 2.645V28.355C0.0938784 28.6406 0.154019 28.9227 0.266954 29.1851C0.379888 29.4475 0.543403 29.685 0.748162 29.8842C0.952921 30.0834 1.19491 30.2403 1.46031 30.346C1.72572 30.4516 2.00933 30.504 2.29497 30.5H27.705C27.9906 30.504 28.2742 30.4516 28.5396 30.346C28.805 30.2403 29.047 30.0834 29.2518 29.8842C29.4565 29.685 29.62 29.4475 29.733 29.1851C29.8459 28.9227 29.9061 28.6406 29.91 28.355V2.645C29.9061 2.35936 29.8459 2.0773 29.733 1.81491C29.62 1.55252 29.4565 1.31495 29.2518 1.11576C29.047 0.916577 28.805 0.759676 28.5396 0.654022C28.2742 0.548367 27.9906 0.496029 27.705 0.499996V0.499996ZM9.13497 25.61H4.63497V12.11H9.13497V25.61ZM6.88497 10.22C6.26436 10.22 5.66917 9.97346 5.23034 9.53463C4.7915 9.09579 4.54497 8.5006 4.54497 7.88C4.54497 7.25939 4.7915 6.6642 5.23034 6.22537C5.66917 5.78653 6.26436 5.54 6.88497 5.54C7.21451 5.50262 7.54823 5.53528 7.86428 5.63582C8.18033 5.73636 8.47157 5.90253 8.71895 6.12344C8.96633 6.34435 9.16425 6.61501 9.29977 6.91772C9.43529 7.22042 9.50534 7.54834 9.50534 7.88C9.50534 8.21165 9.43529 8.53957 9.29977 8.84227C9.16425 9.14498 8.96633 9.41565 8.71895 9.63655C8.47157 9.85746 8.18033 10.0236 7.86428 10.1242C7.54823 10.2247 7.21451 10.2574 6.88497 10.22V10.22ZM25.365 25.61H20.865V18.365C20.865 16.55 20.22 15.365 18.585 15.365C18.079 15.3687 17.5862 15.5274 17.1732 15.8198C16.7602 16.1121 16.4467 16.524 16.275 17C16.1576 17.3526 16.1067 17.7239 16.125 18.095V25.595H11.625C11.625 25.595 11.625 13.325 11.625 12.095H16.125V14C16.5338 13.2907 17.1283 12.7063 17.8446 12.3098C18.5609 11.9133 19.3718 11.7198 20.19 11.75C23.19 11.75 25.365 13.685 25.365 17.84V25.61Z" fill="#A3ABB2"/>
</svg>
