<svg width="30" height="25" viewBox="0 0 30 25" fill="none" xmlns="http://www.w3.org/2000/svg">
<path d="M30 3.2C28.8725 3.68914 27.6801 4.0125 26.46 4.16C27.7473 3.39098 28.7119 2.18118 29.175 0.755002C27.9653 1.4751 26.6411 1.98245 25.26 2.255C24.3368 1.25386 23.1075 0.587446 21.7647 0.360279C20.422 0.133111 19.0418 0.358039 17.8407 0.999786C16.6396 1.64153 15.6854 2.6638 15.1279 3.90626C14.5703 5.14871 14.4409 6.54109 14.76 7.865C12.3141 7.74129 9.92166 7.10443 7.73798 5.99579C5.5543 4.88716 3.62827 3.33154 2.085 1.43C1.54371 2.37525 1.25928 3.44574 1.26 4.535C1.25808 5.54658 1.50633 6.54293 1.98263 7.43535C2.45894 8.32777 3.14853 9.08857 3.99 9.65C3.01197 9.62339 2.05483 9.36095 1.2 8.885V8.96C1.20733 10.3773 1.70399 11.7486 2.60597 12.8419C3.50795 13.9353 4.75988 14.6835 6.15 14.96C5.61488 15.1229 5.05931 15.2087 4.5 15.215C4.11284 15.2105 3.72663 15.1754 3.345 15.11C3.74086 16.3292 4.50693 17.3947 5.53661 18.1582C6.56629 18.9218 7.80836 19.3453 9.09 19.37C6.9258 21.0729 4.25383 22.0023 1.5 22.01C0.998603 22.0116 0.497603 21.9816 0 21.92C2.81164 23.7354 6.08822 24.6991 9.435 24.695C11.7445 24.719 14.0357 24.2825 16.1747 23.4111C18.3136 22.5397 20.2575 21.2508 21.8928 19.6197C23.5281 17.9887 24.8219 16.0481 25.6988 13.9114C26.5757 11.7746 27.0181 9.48459 27 7.175C27 6.92 27 6.65 27 6.38C28.177 5.50222 29.1922 4.42614 30 3.2V3.2Z" fill="#A3ABB2"/>
</svg>
