<svg width="36" height="37" viewBox="0 0 36 37" fill="none" xmlns="http://www.w3.org/2000/svg">
<path d="M34.5 15.065C34.5742 12.918 34.1047 10.787 33.135 8.87C32.4771 8.0834 31.5641 7.55256 30.555 7.37C26.3813 6.99129 22.1903 6.83607 18 6.905C13.825 6.83294 9.6491 6.98315 5.49004 7.355C4.66777 7.50457 3.90682 7.89026 3.30004 8.465C1.95004 9.71 1.80004 11.84 1.65004 13.64C1.43241 16.8763 1.43241 20.1237 1.65004 23.36C1.69344 24.3731 1.84428 25.3787 2.10004 26.36C2.2809 27.1176 2.64682 27.8185 3.16504 28.4C3.77594 29.0052 4.55462 29.4128 5.40004 29.57C8.63391 29.9692 11.8924 30.1346 15.15 30.065C20.4 30.14 25.005 30.065 30.45 29.645C31.3162 29.4975 32.1168 29.0893 32.745 28.475C33.165 28.0549 33.4787 27.5406 33.66 26.975C34.1965 25.3289 34.46 23.6062 34.44 21.875C34.5 21.035 34.5 15.965 34.5 15.065ZM14.61 22.775V13.49L23.49 18.155C21 19.535 17.715 21.095 14.61 22.775Z" fill="#A3ABB2"/>
</svg>
